<?xml version="1.0" encoding="utf-8"?>
<!-- Generator: Adobe Illustrator 21.0.2, SVG Export Plug-In . SVG Version: 6.00 Build 0)  -->
<svg version="1.1" id="Layer_1" xmlns="http://www.w3.org/2000/svg" xmlns:xlink="http://www.w3.org/1999/xlink" x="0px" y="0px"
	 viewBox="0 0 36.1 38.5" style="enable-background:new 0 0 36.1 38.5;" xml:space="preserve">
<style type="text/css">
	.st0{clip-path:url(#SVGID_1_);}
	.st1{clip-path:url(#SVGID_2_);fill:#00A2BA;}
	.st2{clip-path:url(#SVGID_3_);}
	.st3{clip-path:url(#SVGID_4_);fill:#00A2BA;}
	.st4{clip-path:url(#SVGID_5_);}
	.st5{clip-path:url(#SVGID_6_);fill:#00A2BA;}
	.st6{clip-path:url(#SVGID_8_);}
	.st7{clip-path:url(#SVGID_10_);}
	.st8{clip-path:url(#SVGID_12_);fill:#FFFFFF;}
	.st9{clip-path:url(#SVGID_16_);}
	.st10{clip-path:url(#SVGID_20_);fill:none;stroke:#00A2BA;stroke-width:8;stroke-miterlimit:10;}
	.st11{clip-path:url(#SVGID_24_);}
	.st12{clip-path:url(#SVGID_26_);fill:#00A2BA;}
	.st13{clip-path:url(#SVGID_28_);}
	.st14{clip-path:url(#SVGID_30_);fill:#00A2BA;}
</style>
<g>
	<g>
		<defs>
			<path id="SVGID_13_" d="M17.5,31.7c-0.2-0.1-0.4-0.1-0.6-0.2c-1.3-0.5-2.1-2-1.8-3.4c0.3-1.4,1.6-2.4,3-2.3
				c1.5,0,2.6,1.1,2.9,2.6c0.2,1.4-0.6,2.8-2,3.2c-0.1,0-0.3,0.1-0.4,0.2H17.5z"/>
		</defs>
		<clipPath id="SVGID_1_">
			<use xlink:href="#SVGID_13_"  style="overflow:visible;"/>
		</clipPath>
		<g class="st0">
			<defs>
				<rect id="SVGID_15_" x="-99.8" y="-4765.2" width="1280" height="6605"/>
			</defs>
			<clipPath id="SVGID_2_">
				<use xlink:href="#SVGID_15_"  style="overflow:visible;"/>
			</clipPath>
			<rect x="10" y="20.7" class="st1" width="15.9" height="16"/>
		</g>
	</g>
	<g>
		<defs>
			<path id="SVGID_17_" d="M33.9,15.4c-0.2,0.4-0.3,0.8-0.6,1.1c-0.5,0.5-1,1-1.5,1.5c-0.7,0.7-1.2,0.7-1.8-0.1
				c-1.7-2.5-4-4.3-6.9-5.4c-6.1-2.3-13-0.1-16.8,5.3C6.1,18,6,18.1,5.9,18.2c-0.4,0.4-0.9,0.5-1.3,0.1c-0.7-0.6-1.3-1.3-2-2
				c-0.5-0.5-0.5-1.2-0.1-1.8c3.1-4,7.1-6.7,12.3-7.5c7.7-1.2,13.8,1.5,18.5,7.4C33.6,14.7,33.7,15.1,33.9,15.4z"/>
		</defs>
		<clipPath id="SVGID_3_">
			<use xlink:href="#SVGID_17_"  style="overflow:visible;"/>
		</clipPath>
		<g class="st2">
			<defs>
				<rect id="SVGID_19_" x="-99.8" y="-4765.2" width="1280" height="6605"/>
			</defs>
			<clipPath id="SVGID_4_">
				<use xlink:href="#SVGID_19_"  style="overflow:visible;"/>
			</clipPath>
			<rect x="-2.7" y="1.8" class="st3" width="41.6" height="21.8"/>
		</g>
	</g>
	<g>
		<defs>
			<path id="SVGID_21_" d="M27.6,21.7c-0.2,0.4-0.3,0.7-0.6,1c-0.5,0.6-1.1,1.1-1.6,1.7c-0.6,0.6-1.1,0.5-1.6-0.1
				c-1.1-1.4-2.4-2.4-4.1-2.7c-2.8-0.6-5.2,0.2-7.1,2.3c-0.2,0.2-0.3,0.4-0.4,0.5c-0.4,0.4-0.9,0.5-1.4,0c-0.6-0.6-1.2-1.2-1.8-1.9
				c-0.5-0.6-0.5-1.3,0-1.9c2.6-2.9,5.9-4.4,9.9-4.2c3.4,0.2,6.2,1.7,8.4,4.3C27.4,21.1,27.5,21.4,27.6,21.7z"/>
		</defs>
		<clipPath id="SVGID_5_">
			<use xlink:href="#SVGID_21_"  style="overflow:visible;"/>
		</clipPath>
		<g class="st4">
			<defs>
				<rect id="SVGID_23_" x="-99.8" y="-4765.2" width="1280" height="6605"/>
			</defs>
			<clipPath id="SVGID_6_">
				<use xlink:href="#SVGID_23_"  style="overflow:visible;"/>
			</clipPath>
			<rect x="3.5" y="11.5" class="st5" width="29.2" height="18.3"/>
		</g>
	</g>
</g>
<g>
	<g>
		<defs>
			<path id="SVGID_7_" d="M-53.1,6.5h-1.6L-55,8.1c-0.3,1.2-0.5,2.6-0.6,4c-0.1,2.9,0.2,5.9,0.7,8.8c0.2,0.9,0.3,1.7,0.5,2.4
				c0.1,0.4,0.2,0.7,0.3,0.9l1.9-0.6l-1.9,0.5c0.5,2.1,2.2,4.6,4,5.8l8.5,5.8l1.2,0.8l1.1-0.8l8.1-5.8c1.7-1.2,3.4-3.7,4-5.8
				l-1.9-0.5l1.9,0.6c0.2-0.6,0.5-1.6,0.8-3c0.9-4.3,1.1-8.8,0.2-13.1l-0.3-1.6h-1.6c-4.9,0-7.5-0.7-8.9-1.8
				c-0.2-0.2-0.4-0.4-0.6-0.7c-0.1-0.1-0.4-0.7-0.6-0.9C-38.9,2.5-39.6,2-40.6,2c-1,0-1.7,0.5-2.2,1.2C-43,3.4-43.3,4-43.4,4.1
				c-0.2,0.2-0.4,0.5-0.6,0.6C-45.3,5.8-48.1,6.5-53.1,6.5z M-53.1,10.5c5.9,0,9.5-0.9,11.6-2.7c0.5-0.4,1-0.9,1.3-1.4
				c0.2-0.2,0.5-0.7,0.5-0.8c-0.1,0.2-0.5,0.4-1,0.4c-0.5,0-0.8-0.2-0.9-0.4c0,0,0.4,0.6,0.5,0.8c0.4,0.5,0.8,1,1.3,1.4
				c2.1,1.8,5.7,2.7,11.4,2.7l-2-1.6c0.8,3.7,0.6,7.7-0.2,11.5c-0.1,0.7-0.3,1.4-0.5,1.9c-0.1,0.3-0.2,0.5-0.2,0.6l0,0.1
				c-0.3,1.2-1.5,2.8-2.4,3.5l-8.1,5.8l2.3,0l-8.5-5.8c-1-0.7-2.1-2.3-2.4-3.4l0-0.1c0-0.1-0.1-0.4-0.2-0.8
				c-0.2-0.6-0.3-1.4-0.5-2.1c-0.5-2.7-0.8-5.4-0.7-7.9c0.1-1.2,0.2-2.3,0.4-3.3L-53.1,10.5z M-75.6-18h69.8v74.4h-69.8V-18z"/>
		</defs>
		<clipPath id="SVGID_8_">
			<use xlink:href="#SVGID_7_"  style="overflow:visible;"/>
		</clipPath>
		<g class="st6">
			<defs>
				<path id="SVGID_9_" d="M-53.1,8.5C-40.6,8.5-42.1,4-40.6,4c1.6,0,0.1,4.5,12.3,4.5c1.6,7.7-0.9,15.1-0.9,15.1
					c-0.4,1.6-1.9,3.7-3.2,4.6l-8.1,5.8l-8.5-5.8c-1.4-0.9-2.8-3-3.2-4.6C-52.1,23.6-54.7,15.2-53.1,8.5z"/>
			</defs>
			<clipPath id="SVGID_10_">
				<use xlink:href="#SVGID_9_"  style="overflow:visible;"/>
			</clipPath>
			<g class="st7">
				<defs>
					<rect id="SVGID_11_" x="-157.7" y="-4887" width="1280" height="6605"/>
				</defs>
				<clipPath id="SVGID_12_">
					<use xlink:href="#SVGID_11_"  style="overflow:visible;"/>
				</clipPath>
				<path class="st8" d="M-53.1,8.5C-40.6,8.5-42.1,4-40.6,4c1.6,0,0.1,4.5,12.3,4.5c1.6,7.7-0.9,15.1-0.9,15.1
					c-0.4,1.6-1.9,3.7-3.2,4.6l-8.1,5.8l-8.5-5.8c-1.4-0.9-2.8-3-3.2-4.6C-52.1,23.6-54.7,15.2-53.1,8.5z"/>
			</g>
		</g>
	</g>
	<g>
		<defs>
			<path id="SVGID_14_" d="M-53.1,8.5C-40.6,8.5-42.1,4-40.6,4c1.6,0,0.1,4.5,12.3,4.5c1.6,7.7-0.9,15.1-0.9,15.1
				c-0.4,1.6-1.9,3.7-3.2,4.6l-8.1,5.8l-8.5-5.8c-1.4-0.9-2.8-3-3.2-4.6C-52.1,23.6-54.7,15.2-53.1,8.5z"/>
		</defs>
		<clipPath id="SVGID_16_">
			<use xlink:href="#SVGID_14_"  style="overflow:visible;"/>
		</clipPath>
		<g class="st9">
			<defs>
				<rect id="SVGID_18_" x="-157.7" y="-4887" width="1280" height="6605"/>
			</defs>
			<clipPath id="SVGID_20_">
				<use xlink:href="#SVGID_18_"  style="overflow:visible;"/>
			</clipPath>
			<path class="st10" d="M-53.1,8.5C-40.6,8.5-42.1,4-40.6,4c1.6,0,0.1,4.5,12.3,4.5c1.6,7.7-0.9,15.1-0.9,15.1
				c-0.4,1.6-1.9,3.7-3.2,4.6l-8.1,5.8l-8.5-5.8c-1.4-0.9-2.8-3-3.2-4.6C-52.1,23.6-54.7,15.2-53.1,8.5z"/>
		</g>
	</g>
	<g>
		<defs>
			<path id="SVGID_22_" d="M-41.1,8c0,0,0.1,3.4,9.9,3.4c1.3,5.9-0.5,10.8-0.5,10.8c-0.4,1.6-1.9,3.5-3.4,4.3l-5.8,3.1L-41,12.2
				L-41.1,8z"/>
		</defs>
		<clipPath id="SVGID_24_">
			<use xlink:href="#SVGID_22_"  style="overflow:visible;"/>
		</clipPath>
		<g class="st11">
			<defs>
				<rect id="SVGID_25_" x="-157.7" y="-4887" width="1280" height="6605"/>
			</defs>
			<clipPath id="SVGID_26_">
				<use xlink:href="#SVGID_25_"  style="overflow:visible;"/>
			</clipPath>
			<rect x="-46.1" y="3" class="st12" width="20.3" height="31.7"/>
		</g>
	</g>
</g>
<g>
	<g>
		<defs>
			<path id="SVGID_27_" d="M63.2,9.2c2.4,0,4,1.6,4,4v4h-8v-4C59.2,10.9,60.8,9.2,63.2,9.2z M63.2,5.2c-4.4,0-8,3.6-8,8v4h-4v16h24
				v-16h-4v-4C71.2,8.8,67.6,5.2,63.2,5.2z"/>
		</defs>
		<clipPath id="SVGID_28_">
			<use xlink:href="#SVGID_27_"  style="overflow:visible;"/>
		</clipPath>
		<g class="st13">
			<defs>
				<rect id="SVGID_29_" x="-55.8" y="-4998.8" width="1280" height="6605"/>
			</defs>
			<clipPath id="SVGID_30_">
				<use xlink:href="#SVGID_29_"  style="overflow:visible;"/>
			</clipPath>
			<rect x="46.2" y="0.2" class="st14" width="34" height="38"/>
		</g>
	</g>
</g>
</svg>
